<svg xmlns="http://www.w3.org/2000/svg" viewBox="0 0 123.35 103.62"><defs><style>.cls-1{fill:none;stroke:#000;stroke-miterlimit:5;stroke-width:2px;}</style></defs><title>email</title><g id="Livello_2" data-name="Livello 2"><g id="other"><g id="servizi_opzionali" data-name="servizi opzionali"><path class="cls-1" d="M58.62,62.22,1.31,29.13a8.47,8.47,0,0,0,.18,5.07l16.87,63c1.34,5,3.61,6.32,8.62,5L116.88,78c5-1.34,6.32-3.61,5-8.62L105,6.47c-.71-2.65-1.68-4.25-3.17-5L68.24,59.64C65.65,64.13,63.11,64.81,58.62,62.22Z"/><path class="cls-1" d="M6.47,25.58c-2.86.76-4.51,1.84-5.16,3.55L58.62,62.22c4.49,2.59,7,1.91,9.62-2.58L101.82,1.48c-1.34-.66-3.09-.63-5.45,0Z"/></g></g></g></svg>