<svg xmlns="http://www.w3.org/2000/svg" viewBox="0 0 444.75 124.51"><defs><style>.cls-1{fill:#e35205;}.cls-2{fill:#fff;}</style></defs><title>logo aruba</title><g id="Livello_2" data-name="Livello 2"><g id="logo_bianco_su_doppio_livello" data-name="logo bianco su doppio livello"><path class="cls-1" d="M55.69,45.88a11.6,11.6,0,0,0-1.44.09,11.91,11.91,0,0,0-9,6.05q-1.17-.35-2.46-.66a53.45,53.45,0,0,0-9.14-1.61c-.48,0-1,0-1.47,0a25.65,25.65,0,0,0-8.47,1.53c-2.3.82-4.34,1.59-6,2.3a26.86,26.86,0,0,0-6.21,3.57A19.87,19.87,0,0,0,5.34,66Q4,69.34,2.88,72.19A34.22,34.22,0,0,0,.72,81.48C.45,84.13.25,86.65.11,89a64.74,64.74,0,0,0,0,7.63,20.37,20.37,0,0,0,3.31,10.27l3.06,4.6a27,27,0,0,0,7.62,7.23,24.09,24.09,0,0,0,9.47,4.15c1.58.27,3.78.6,6.53,1a47,47,0,0,0,6.51.52c.72,0,1.42,0,2.09-.07a23.23,23.23,0,0,0,9.1-2.82c.58-.31,1.15-.63,1.7-1a11.26,11.26,0,0,0,8.59,4c4.12,0,9.44-2.51,10.85-9.56a44.37,44.37,0,0,0,.37-9.66c-.13-3.6-.25-10.56-.38-20.69-.13-10.36-.33-17.51-.6-21.25-.36-5-.92-8-1.94-10.28a11.7,11.7,0,0,0-10.7-7.19ZM30.94,74.67h4.34a27.55,27.55,0,0,1,3.63.26,17.6,17.6,0,0,1,2,2,32.23,32.23,0,0,1,2,4.07A14.84,14.84,0,0,1,44.19,86a15.25,15.25,0,0,1-.46,4.58,17,17,0,0,1-2.11,4.63,13.13,13.13,0,0,1-2.82,3.35A8.1,8.1,0,0,1,36.05,100a3.22,3.22,0,0,1-.95.14,2.92,2.92,0,0,1-.71-.08,41.82,41.82,0,0,1-5.17-1.57,8.73,8.73,0,0,1-2.38-1.2c-.91-.73-1.82-1.43-2.73-2.09-.11-1.4-.22-3.64-.22-7.17a23.91,23.91,0,0,1,1.2-7.82A10.59,10.59,0,0,1,28.24,76c1-.47,1.93-.92,2.7-1.35ZM24.22,96.19Z"/><path class="cls-1" d="M80.33,48.07a11.31,11.31,0,0,0-5.66,1.54,13,13,0,0,0-6.34,10l-.16,1.59a7.34,7.34,0,0,0,0,.81v1c0,.11,0,.22,0,.33,1.21,29,2,46.46,2.15,48.71.45,6.86,3.82,9.94,6.57,11.31a11.06,11.06,0,0,0,5,1.19,11.35,11.35,0,0,0,8.67-4.17c2.51-3,3.17-6.79,3-16.83-.13-6.11-.19-12.69-.19-19.54,0-4.16,0-6.73,0-8.46a10.33,10.33,0,0,1,2.17-2.28,5.89,5.89,0,0,1,2.51-1,11.31,11.31,0,0,1,2.21-.25,3.93,3.93,0,0,1,.78.06.75.75,0,0,1,.45.2,30.21,30.21,0,0,0,4.57,3.61c.28.17.81.51,1.67,1.12a13.31,13.31,0,0,0,7.81,2.73,11.73,11.73,0,0,0,9.15-4.53,12.41,12.41,0,0,0,2.56-9.57,12.78,12.78,0,0,0-6.09-9,24.76,24.76,0,0,1-2.68-2,23.26,23.26,0,0,0-9-4.67,42.47,42.47,0,0,0-8.65-1.26c-.58,0-1.16,0-1.74,0a35.8,35.8,0,0,0-8.7,1.08,23.24,23.24,0,0,0-2.64.82,11.84,11.84,0,0,0-7.33-2.38Z"/><path class="cls-1" d="M145.27,41.87a14.15,14.15,0,0,0-8.07,2.73l-.32.22a8.07,8.07,0,0,0-2.64,3l-.17.35c-4.26,8.59-6.53,14.08-7.37,17.8A94.18,94.18,0,0,0,125,76.11a66.12,66.12,0,0,0-.43,9.81,22.67,22.67,0,0,0,4,11.86,27.44,27.44,0,0,0,7.59,7.76,46.28,46.28,0,0,0,6.92,3.79,23,23,0,0,0,9.33,2h7.05a36.93,36.93,0,0,0,8.77-.81,32.36,32.36,0,0,0,9-4.35,23.72,23.72,0,0,0,9.29-10.17,43.66,43.66,0,0,0,2.94-9.13,54.38,54.38,0,0,0,1-10.82c0-4.56-1.15-10-3.41-16.13-2.82-7.65-5.48-12.4-10.69-14a13.33,13.33,0,0,0-3.95-.6,14.51,14.51,0,0,0-7.05,1.89,11.67,11.67,0,0,0-5.12,5.63,13,13,0,0,0,.45,10.62c.94,2.12,2.08,4.57,3.4,7.26a10.8,10.8,0,0,1,1,4.74,32.65,32.65,0,0,1-.56,6.6,11.61,11.61,0,0,1-.82,2.74,10.88,10.88,0,0,1-1.89,2.08,4.47,4.47,0,0,1-1.9,1,15.58,15.58,0,0,1-4,.58,11.22,11.22,0,0,1-3.34-.5,7.12,7.12,0,0,1-2.38-1.24,6.14,6.14,0,0,1-1.07-1,18.34,18.34,0,0,1-.52-3.5,19.59,19.59,0,0,1,.5-6.34,64.88,64.88,0,0,1,2.69-8.09,33.36,33.36,0,0,1,2-4.38,16.07,16.07,0,0,0,3-7.28,13.51,13.51,0,0,0-1.46-8.3,11.33,11.33,0,0,0-10.06-6Z"/><path class="cls-1" d="M202.67,0a11.07,11.07,0,0,0-7.23,2.61c-3,2.55-3.54,5.75-3.86,9.36C191.24,15.86,191,23,191,34.53c-.16,19.56-.39,26.42-.55,28.72-.27,3.75-.47,10.9-.6,21.26-.13,10.1-.25,17.06-.38,20.69a44.37,44.37,0,0,0,.37,9.66c1.41,7,6.73,9.55,10.85,9.55a11.24,11.24,0,0,0,8.59-4c.55.35,1.12.68,1.7,1a23.08,23.08,0,0,0,9.11,2.81c.66,0,1.36.08,2.08.08a45.67,45.67,0,0,0,6.51-.53c2.84-.4,5-.73,6.54-1a24.33,24.33,0,0,0,9.46-4.15,27.14,27.14,0,0,0,7.62-7.23l3.06-4.6a20.44,20.44,0,0,0,3.31-10.27,69.36,69.36,0,0,0,0-7.63c-.14-2.3-.34-4.82-.61-7.48a34.22,34.22,0,0,0-2.16-9.29q-1.14-2.85-2.46-6.25A20,20,0,0,0,247.3,57a26.86,26.86,0,0,0-6.21-3.57c-1.68-.71-3.72-1.48-6-2.3a25.4,25.4,0,0,0-8.48-1.53c-.49,0-1,0-1.45,0a53.23,53.23,0,0,0-9.15,1.6l-1.81.48c0-3.36.11-7.54.2-12.75.34-19.93.62-23.48.69-24.1.61-4.9-.92-11.07-7-13.73A13.47,13.47,0,0,0,202.67,0Zm17.15,74.84a27.55,27.55,0,0,1,3.63-.26h4.34c.77.43,1.66.87,2.7,1.35a10.59,10.59,0,0,1,3.15,4.14,23.91,23.91,0,0,1,1.2,7.82c0,3.52-.11,5.76-.22,7.16-.92.67-1.83,1.37-2.73,2.09a8.93,8.93,0,0,1-2.38,1.21,44.78,44.78,0,0,1-5.17,1.57,3.61,3.61,0,0,1-.72.08,3.09,3.09,0,0,1-.93-.14,8.14,8.14,0,0,1-2.76-1.42,13,13,0,0,1-2.82-3.36,16.44,16.44,0,0,1-2.1-4.62,15,15,0,0,1-.47-4.59A14.79,14.79,0,0,1,215.87,81a32,32,0,0,1,2-4.08,18.79,18.79,0,0,1,2-2Z"/><path class="cls-1" d="M314.1,45.88a12.08,12.08,0,0,0-1.47.09,11.9,11.9,0,0,0-9,6.05q-1.19-.35-2.46-.66A53.71,53.71,0,0,0,292,49.75c-.48,0-1,0-1.45,0a25.57,25.57,0,0,0-8.48,1.53c-2.32.82-4.35,1.59-6,2.3a26.79,26.79,0,0,0-6.2,3.57,19.89,19.89,0,0,0-6.09,8.84c-.89,2.28-1.7,4.36-2.46,6.25a34.59,34.59,0,0,0-2.17,9.29c-.26,2.69-.47,5.21-.6,7.48a64.74,64.74,0,0,0,0,7.63,20.4,20.4,0,0,0,3.3,10.27l3.07,4.6a26.87,26.87,0,0,0,7.62,7.23,24.06,24.06,0,0,0,9.46,4.15c1.58.27,3.78.6,6.54,1a46.78,46.78,0,0,0,6.5.52c.73,0,1.43,0,2.09-.07a23.27,23.27,0,0,0,9.11-2.82c.57-.31,1.14-.63,1.7-1a11.25,11.25,0,0,0,8.58,4c4.12,0,9.44-2.5,10.85-9.55a44.51,44.51,0,0,0,.37-9.67c-.12-3.62-.25-10.38-.38-20.69s-.33-17.49-.59-21.25c-.36-5-.93-8-1.95-10.28a11.68,11.68,0,0,0-10.69-7.19ZM289.35,74.67h4.34a27.29,27.29,0,0,1,3.62.26,17.52,17.52,0,0,1,2,2,31.94,31.94,0,0,1,2,4.07,13.32,13.32,0,0,1,.86,9.5,16.65,16.65,0,0,1-2.1,4.63,13,13,0,0,1-2.82,3.36,8.1,8.1,0,0,1-2.75,1.42,3.24,3.24,0,0,1-.95.15,2.94,2.94,0,0,1-.71-.09,41.82,41.82,0,0,1-5.17-1.57,8.87,8.87,0,0,1-2.38-1.2c-.91-.73-1.82-1.43-2.73-2.09-.12-1.4-.23-3.64-.23-7.17a23.9,23.9,0,0,1,1.21-7.82A10.45,10.45,0,0,1,286.64,76c1.05-.47,1.94-.92,2.71-1.35Z"/><path class="cls-1" d="M341.34,94.49a8,8,0,0,0-2.81.51l-2,.76c-6.53,2.45-8.71,6.64-9.39,9.72a18.05,18.05,0,0,0-.32,6.46c.36,2.5,1.91,7.09,8.25,9.73a16.36,16.36,0,0,0,6.3,1.33,13.72,13.72,0,0,0,4.38-.71,15,15,0,0,0,7-4.65,12.43,12.43,0,0,0,2.5-11.06,13.75,13.75,0,0,0-5.42-7.93,20.94,20.94,0,0,0-2.54-1.57,7.5,7.5,0,0,0-1.34-1.16,8,8,0,0,0-4.55-1.43Z"/><path class="cls-1" d="M368,19.26a15.62,15.62,0,0,0-8.39,2.4,14.64,14.64,0,0,0-5.8,6.61A20.47,20.47,0,0,0,352.3,34a39.75,39.75,0,0,0-.25,4.3,15.41,15.41,0,0,0,1.58,6.93,29.67,29.67,0,0,0,1.94,3.33c.67,1,1.58,2.22,2.78,3.73l.24.3c.11.13.21.25.33.37a17.52,17.52,0,0,0-.35,3.55,20.13,20.13,0,0,0,.9,6c1.95,24.17,3,37.55,3.16,39.07.53,6.34,4.17,9.32,6.29,10.53a12.21,12.21,0,0,0,6.12,1.69,11.24,11.24,0,0,0,5.78-1.6,12.23,12.23,0,0,0,5.71-9.69c.13-1.32.28-2.81-1.71-24.81-1.73-19-2.18-22.86-2.38-24.15a14.35,14.35,0,0,0-.76-2.91,21.66,21.66,0,0,0,2.18-3.92,21.6,21.6,0,0,0,1.93-10.23,21.12,21.12,0,0,0-2.48-8.67A15.42,15.42,0,0,0,375,20.6a20.35,20.35,0,0,0-7-1.34Z"/><path class="cls-1" d="M416,6.39a12.63,12.63,0,0,0-8.92,3.86c-3.18,3.18-4,7.32-3.83,18.45.07,3.92.17,7.9.31,11.9-11.14,1-12.3,1.65-14,2.65a11.84,11.84,0,0,0-6.22,10.33,10.7,10.7,0,0,0,2.25,6.57,11.8,11.8,0,0,0,8.29,4.35,19.63,19.63,0,0,0,2.32.12c1.72,0,4-.14,7.19-.44.06,3.89.13,8.93.22,14.93.27,18.42.21,24.54.11,26.43-.27,5,.31,8.5,1.89,11.22A11.68,11.68,0,0,0,415.76,123c2.95,0,7.16-1.17,10.47-6.77,1.95-3.3,2.54-7.83,2.18-16.72-.25-6.09-.31-14.89-.18-26.15,0-4.34.08-7.87.11-10.63h1c5.44,0,9.6-1.59,12.34-4.75A11.21,11.21,0,0,0,442.12,43c-1.7-2-4.88-4.48-10.38-4.48l-.72,0-2.74.12c0-.82,0-1.72-.06-2.73-.13-7.57-.34-12.67-.66-16a23.37,23.37,0,0,0-1.29-6.2,10.82,10.82,0,0,0-8.49-7.15A11.51,11.51,0,0,0,416,6.39Z"/><path class="cls-2" d="M58.09,116.51c-1,0-2.29-.41-3.26-2.37-.39-.77-.78-2.48-.89-8.75l-4.33,4.69A21,21,0,0,1,44,114.41a15.26,15.26,0,0,1-6,1.9,32.31,32.31,0,0,1-6.85-.39c-2.68-.39-4.82-.71-6.36-1A17.07,17.07,0,0,1,18.54,112a19.24,19.24,0,0,1-5.4-5l-3.07-4.6a12.55,12.55,0,0,1-2-6.3,57.43,57.43,0,0,1,0-6.69c.13-2.2.32-4.6.58-7.16a26.55,26.55,0,0,1,1.63-7.11c.77-1.92,1.59-4,2.49-6.31a12.39,12.39,0,0,1,3.54-5.44,19.19,19.19,0,0,1,4.37-2.5c1.57-.65,3.47-1.37,5.64-2.13a16.75,16.75,0,0,1,6.73-1.05,46.29,46.29,0,0,1,7.74,1.39,38.42,38.42,0,0,1,7.59,2.6A14.61,14.61,0,0,1,51.75,64c-.14-1.18-.25-2.23-.33-3.13a9.71,9.71,0,0,1,.47-4.3,4,4,0,0,1,3.33-2.69,3.63,3.63,0,0,1,3.85,2.41c.6,1.34,1,3.76,1.28,7.6.26,3.58.45,10.58.58,20.78s.25,17.2.38,20.86a39.52,39.52,0,0,1-.22,7.82C60.55,116.1,59,116.51,58.09,116.51Zm-40.56-39A31.86,31.86,0,0,0,15.89,88a82.5,82.5,0,0,0,.37,9,4.75,4.75,0,0,0,1.67,3.54c1.29.91,2.61,1.89,3.91,2.93a16.63,16.63,0,0,0,4.57,2.45,50.3,50.3,0,0,0,6.15,1.87,11.23,11.23,0,0,0,5.75-.17,16.35,16.35,0,0,0,5.43-2.81,21.08,21.08,0,0,0,4.65-5.37,25,25,0,0,0,3.07-6.87,22.89,22.89,0,0,0,.72-7,22.58,22.58,0,0,0-2-7.71,30.17,30.17,0,0,0-2.9-5.64A24.06,24.06,0,0,0,44.24,69a7.4,7.4,0,0,0-4-1.93,35.93,35.93,0,0,0-5-.37H30.49a4.72,4.72,0,0,0-2.62.52,27,27,0,0,1-3.89,2,18.86,18.86,0,0,0-6.45,8.39Z"/><path class="cls-2" d="M81.83,116.5a3.14,3.14,0,0,1-1.4-.34c-1.3-.65-2-2.18-2.17-4.7-.13-1.92-.85-17.51-2.14-48.5V62l.17-1.59a5,5,0,0,1,2.35-3.84,3.34,3.34,0,0,1,1.69-.49,3.25,3.25,0,0,1,3.09,1.52c.82,1.68.73,4.13.9,4.79l1-1.1a13.67,13.67,0,0,1,6.87-3.89,28,28,0,0,1,8.11-.81,35,35,0,0,1,7,1,15.51,15.51,0,0,1,5.9,3.1,31.73,31.73,0,0,0,3.53,2.64,4.78,4.78,0,0,1,2.42,3.36,4.41,4.41,0,0,1-.89,3.46,3.67,3.67,0,0,1-2.9,1.52,5.59,5.59,0,0,1-3.17-1.24c-.86-.62-1.6-1.11-2.2-1.47a23.68,23.68,0,0,1-3.3-2.67,8.7,8.7,0,0,0-4.27-2.13,15.87,15.87,0,0,0-6.12.19,13.87,13.87,0,0,0-5.88,2.59,18.1,18.1,0,0,0-4.08,4.42c-.81,1.26-1.14,1.86-1.27,2.12.15,1.17.17,3.81.17,10.49,0,6.92.06,13.55.19,19.71.19,9.18-.48,10.76-1.11,11.53A3.3,3.3,0,0,1,81.83,116.5Z"/><path class="cls-2" d="M159.5,103.38h-7.05a15.14,15.14,0,0,1-6.11-1.38,38.86,38.86,0,0,1-5.74-3.14,19.74,19.74,0,0,1-5.35-5.54,14.87,14.87,0,0,1-2.65-7.72A59.56,59.56,0,0,1,133,77a85.26,85.26,0,0,1,1.52-9.22c.67-3,2.87-8.23,6.73-16l.17-.35.32-.22a6.31,6.31,0,0,1,3.54-1.32,3.35,3.35,0,0,1,3,1.84,5.53,5.53,0,0,1,.55,3.41,8.25,8.25,0,0,1-1.62,3.7,31.24,31.24,0,0,0-2.88,6.05,75,75,0,0,0-3,9.06,27.48,27.48,0,0,0-.72,8.95c.29,3.86.9,5.69,1.36,6.55a12.11,12.11,0,0,0,3.24,3.65,15.17,15.17,0,0,0,5,2.62,20.62,20.62,0,0,0,11.73,0,12.43,12.43,0,0,0,5.27-2.86,18.29,18.29,0,0,0,3.36-3.92,17.94,17.94,0,0,0,1.75-5.11,41,41,0,0,0,.73-8.27,18.69,18.69,0,0,0-1.76-8.25c-1.28-2.61-2.38-5-3.29-7-1.71-3.86.29-5.48,1.23-6a6,6,0,0,1,4.8-.65c1.27.39,2.81,1.76,5.52,9.11,1.94,5.25,2.92,9.75,2.92,13.36a46.55,46.55,0,0,1-.8,9.21,35.71,35.71,0,0,1-2.4,7.46A15.87,15.87,0,0,1,173,99.46a26,26,0,0,1-6.71,3.35A30.28,30.28,0,0,1,159.5,103.38Z"/><path class="cls-2" d="M200.64,116.41c-.89,0-2.46-.4-3-3.12a38.82,38.82,0,0,1-.22-7.82c.12-3.68.25-10.7.38-20.86s.32-17.2.58-20.79.44-13.36.57-29.23c.2-24.65.86-25.21,1.64-25.86s2.07-1.16,4.24-.23c1.28.56,2.71,1.94,2.28,5.4-.25,2-.5,10.38-.75,25s-.32,23.23-.2,25.92a14.13,14.13,0,0,1,4.16-3.14A38.13,38.13,0,0,1,217.91,59a47.16,47.16,0,0,1,7.74-1.38,16.91,16.91,0,0,1,6.73,1c2.19.77,4.08,1.49,5.64,2.14a19.19,19.19,0,0,1,4.37,2.5,12.29,12.29,0,0,1,3.54,5.43q1.33,3.45,2.49,6.31a26.63,26.63,0,0,1,1.63,7.12c.26,2.56.45,5,.58,7.15a57.6,57.6,0,0,1,0,6.7,12.55,12.55,0,0,1-2,6.3l-3.07,4.6a19.21,19.21,0,0,1-5.4,5,17.15,17.15,0,0,1-6.34,2.92c-1.5.25-3.58.57-6.35,1a32.48,32.48,0,0,1-6.85.4,15.42,15.42,0,0,1-6-1.9,21.19,21.19,0,0,1-5.57-4.33l-4.33-4.69c-.11,6.27-.5,8-.89,8.75C202.92,116,201.59,116.41,200.64,116.41Zm22.81-49.83a34.44,34.44,0,0,0-5,.37,7.32,7.32,0,0,0-4,1.92,24.9,24.9,0,0,0-3.07,3.24,32.42,32.42,0,0,0-2.89,5.64,22.46,22.46,0,0,0-2,7.72,22.92,22.92,0,0,0,.72,7,24.51,24.51,0,0,0,3.07,6.86,21.08,21.08,0,0,0,4.64,5.37,15.94,15.94,0,0,0,5.44,2.81,11,11,0,0,0,5.75.17,50.11,50.11,0,0,0,6.14-1.86,16.83,16.83,0,0,0,4.58-2.45c1.29-1,2.61-2,3.91-2.93a4.83,4.83,0,0,0,1.67-3.55,82.67,82.67,0,0,0,.37-9,31.88,31.88,0,0,0-1.64-10.44,19,19,0,0,0-6.45-8.39,25,25,0,0,1-3.89-2,4.85,4.85,0,0,0-2.62-.51Z"/><path class="cls-2" d="M316.49,116.51c-.94,0-2.28-.41-3.25-2.37-.39-.77-.79-2.48-.9-8.75L308,110.08a20.82,20.82,0,0,1-5.57,4.33,15.15,15.15,0,0,1-6,1.9,32.25,32.25,0,0,1-6.84-.39c-2.69-.39-4.83-.71-6.36-1A17,17,0,0,1,277,112a19.1,19.1,0,0,1-5.4-5l-3.07-4.6a12.45,12.45,0,0,1-2-6.3,53.33,53.33,0,0,1,0-6.69c.12-2.17.32-4.58.58-7.16a25.81,25.81,0,0,1,1.63-7.11q1.14-2.88,2.48-6.31a12.49,12.49,0,0,1,3.55-5.44,19.19,19.19,0,0,1,4.37-2.5c1.56-.65,3.46-1.37,5.63-2.13a16.8,16.8,0,0,1,6.74-1.05,46.46,46.46,0,0,1,7.74,1.39,38.3,38.3,0,0,1,7.58,2.6A14.18,14.18,0,0,1,310.15,64c-.13-1.17-.24-2.22-.33-3.13a9.85,9.85,0,0,1,.48-4.3,4,4,0,0,1,3.32-2.69,3.63,3.63,0,0,1,3.86,2.41c.6,1.34,1,3.75,1.28,7.6.25,3.6.45,10.6.58,20.78.13,10.36.25,17.18.38,20.86a40.34,40.34,0,0,1-.22,7.82C319,116.1,317.38,116.51,316.49,116.51Zm-40.55-39A31.86,31.86,0,0,0,274.29,88a82,82,0,0,0,.38,9,4.75,4.75,0,0,0,1.67,3.54c1.29.91,2.6,1.89,3.91,2.93a16.49,16.49,0,0,0,4.57,2.45A50.15,50.15,0,0,0,291,107.8a11.12,11.12,0,0,0,5.75-.17,16.3,16.3,0,0,0,5.44-2.81,20.87,20.87,0,0,0,4.64-5.37,24.73,24.73,0,0,0,3.08-6.87,22.89,22.89,0,0,0,.72-7,22.44,22.44,0,0,0-2-7.71,30.45,30.45,0,0,0-2.89-5.64A24.84,24.84,0,0,0,302.64,69a7.43,7.43,0,0,0-4-1.92,36.16,36.16,0,0,0-5-.37h-4.8a4.7,4.7,0,0,0-2.61.52,27.53,27.53,0,0,1-3.89,2,18.86,18.86,0,0,0-6.45,8.39Z"/><path class="cls-2" d="M341.34,115a8.35,8.35,0,0,1-3.23-.72c-2.05-.85-3.19-2-3.4-3.47a10.32,10.32,0,0,1,.21-3.61c.38-1.69,1.81-3,4.39-4l2-.76v1.08a7.86,7.86,0,0,1,1.16.21,8.24,8.24,0,0,1,2.62,1.38,5.78,5.78,0,0,1,2.31,3.35,4.41,4.41,0,0,1-.88,4,7.27,7.27,0,0,1-3.36,2.18A5.69,5.69,0,0,1,341.34,115Z"/><path class="cls-2" d="M375,105.83a4.32,4.32,0,0,1-2.16-.64A5,5,0,0,1,370.6,101q-.19-2.3-3.24-40a12.34,12.34,0,0,1-.79-4.36,6.22,6.22,0,0,1,1.1-4A4.23,4.23,0,0,1,371.14,51c1.05,0,2.89.49,3.4,3.76.26,1.72,1,9.46,2.31,23.67,1.73,19,1.81,22.41,1.72,23.29a4.47,4.47,0,0,1-1.87,3.63A3.17,3.17,0,0,1,375,105.83Zm-5.82-57.17a11,11,0,0,1-4-.88l-.36-.15-.25-.3c-1-1.31-1.84-2.37-2.38-3.17h0a22.18,22.18,0,0,1-1.43-2.47,7.37,7.37,0,0,1-.74-3.35,29.6,29.6,0,0,1,.21-3.43,12.32,12.32,0,0,1,.87-3.49,6.66,6.66,0,0,1,2.7-3c2.42-1.51,5.13-1.51,8.39-.33a7.47,7.47,0,0,1,4.07,3.57,13.34,13.34,0,0,1,1.52,5.4,13.86,13.86,0,0,1-1.27,6.46c-1.08,2.45-2.29,3.91-3.73,4.45A10.27,10.27,0,0,1,369.22,48.66Zm-.79-7.41a1.89,1.89,0,0,0,1.72,0h0a3.87,3.87,0,0,0,.77-1.26,4.29,4.29,0,0,0,.45-2.35,6.29,6.29,0,0,0-.6-2.08,1.69,1.69,0,0,0-.87-.84,2.25,2.25,0,0,0-2.23-.06,1.34,1.34,0,0,0-.51.57,3.78,3.78,0,0,0-.23,1.15c0,.58,0,1.14,0,1.69a3.66,3.66,0,0,0,.12,1,3.88,3.88,0,0,0,.42.91A10,10,0,0,0,368.43,41.25Z"/><path class="cls-2" d="M415.76,115c-.88,0-2.15-.38-3.22-2.23-.74-1.28-1-3.43-.82-6.78.15-2.93.12-12-.1-27-.19-12.64-.3-20.72-.33-23.24a28.41,28.41,0,0,0-6.21.22c-5.4.56-8.76.75-10.29.57-3.1-.35-3.44-2.2-3.44-3a3.88,3.88,0,0,1,2.23-3.41c.61-.35,1.72-1,18.31-2.2-.28-6.52-.49-13-.61-19.43h0c-.18-10.1.68-11.82,1.5-12.64a4.37,4.37,0,0,1,3.82-1.48c2.17.32,2.73,3.31,3,6.19.29,3.14.49,8.19.63,15.44s.31,9.9.42,10.79a14.94,14.94,0,0,0,3.54,0c3-.18,5.43-.31,7.13-.38,2.15-.08,3.71.45,4.66,1.59.53.64,1.57,2.37-.36,4.58-1.17,1.35-3.23,2-6.3,2-2.53,0-4.89.08-7,.24a7.72,7.72,0,0,0-1.87.31c0,1.64-.08,7.31-.19,18-.13,11.41-.07,20.35.19,26.56.35,8.72-.39,11.17-1.07,12.33S417.47,115,415.76,115Z"/></g></g></svg>