<svg xmlns="http://www.w3.org/2000/svg" viewBox="0 0 58 37" fill="#3f3f3f"><path d="M57.35,16.28A34.5,34.5,0,0,0,45.17,4.46a31.54,31.54,0,0,0-32.34,0A34.5,34.5,0,0,0,.65,16.28,4.45,4.45,0,0,0,0,18.5a4.45,4.45,0,0,0,.65,2.22A34.5,34.5,0,0,0,12.83,32.54a31.57,31.57,0,0,0,32.34,0A34.19,34.19,0,0,0,57.35,20.72,4.45,4.45,0,0,0,58,18.5,4.45,4.45,0,0,0,57.35,16.28ZM22.06,7.5A9.49,9.49,0,0,1,29,4.62a1.54,1.54,0,0,1,1.1.45,1.5,1.5,0,0,1,.45,1.1,1.48,1.48,0,0,1-.45,1.09,1.5,1.5,0,0,1-1.1.45,6.5,6.5,0,0,0-4.76,2,6.42,6.42,0,0,0-2,4.72,1.45,1.45,0,0,1-.46,1.09,1.49,1.49,0,0,1-1.1.45,1.52,1.52,0,0,1-1.1-.45,1.48,1.48,0,0,1-.45-1.09A9.37,9.37,0,0,1,22.06,7.5ZM43.06,29a27.29,27.29,0,0,1-28.12,0A33.26,33.26,0,0,1,4.14,18.5,31.8,31.8,0,0,1,16.47,7.16a14,14,0,0,0-2,7.23,13.78,13.78,0,0,0,4.26,10.16A14,14,0,0,0,29,28.78a14,14,0,0,0,10.24-4.23A13.78,13.78,0,0,0,43.5,14.39a14,14,0,0,0-2-7.23A31.8,31.8,0,0,1,53.86,18.5,33.26,33.26,0,0,1,43.06,29Z"/></svg>