<svg xmlns="http://www.w3.org/2000/svg" viewBox="0 0 34 42"><defs><style>.cls-1{fill:none;stroke:#3f3f3f;stroke-linecap:round;stroke-miterlimit:10;stroke-width:2px;}</style></defs><path class="cls-1" d="M1,39.23V17.89a1.78,1.78,0,0,1,1.78-1.77H31.22A1.78,1.78,0,0,1,33,17.89V39.23A1.78,1.78,0,0,1,31.22,41H2.78A1.78,1.78,0,0,1,1,39.23Z"/><path class="cls-1" d="M27,16.12V11.06c0-4.32-3.41-8.85-7.65-9.8A10,10,0,0,0,7,11v5.17"/><path d="M19.74,26.83a2.67,2.67,0,0,0-5.34,0,4.16,4.16,0,0,0,.6,2v2.48A2.31,2.31,0,0,0,17.07,33,2,2,0,0,0,19,31.26V28.78A3.08,3.08,0,0,0,19.74,26.83Z"/></svg>