<svg xmlns="http://www.w3.org/2000/svg" viewBox="0 0 59 44" fill="#3f3f3f"><path d="M41.65,26.11a14.28,14.28,0,0,0,2.6-8.3A16.2,16.2,0,0,0,44,15.06L34.77,31.49A14.51,14.51,0,0,0,41.65,26.11Z"/><path d="M43,3.47a.85.85,0,0,0,0-.29,1,1,0,0,0-.53-.89l-.64-.37c-.36-.21-.71-.41-1-.61s-.7-.4-1.09-.61l-1-.5a1.86,1.86,0,0,0-.59-.2,1,1,0,0,0-.93.52L35.43,3.7a32.58,32.58,0,0,0-5.93-.56A31.32,31.32,0,0,0,13.17,7.6,38.21,38.21,0,0,0,.66,19.74a4.2,4.2,0,0,0,0,4.52,39.3,39.3,0,0,0,6.86,8,34.12,34.12,0,0,0,8.68,5.66,12.15,12.15,0,0,0-1.45,2.85,1,1,0,0,0,.53.92A26.77,26.77,0,0,0,19.69,44a1.05,1.05,0,0,0,.92-.52l1.61-2.92Q25.72,34.38,32.63,22T43,3.47ZM18.27,34.28A32.52,32.52,0,0,1,4.21,22,32.37,32.37,0,0,1,16.76,10.44a14.25,14.25,0,0,0-2,7.37,14.61,14.61,0,0,0,6.09,11.85ZM30.62,10.54A1.52,1.52,0,0,1,29.5,11a6.62,6.62,0,0,0-4.84,2,6.53,6.53,0,0,0-2,4.81,1.48,1.48,0,0,1-.46,1.11,1.59,1.59,0,0,1-2.24,0,1.48,1.48,0,0,1-.46-1.11,9.52,9.52,0,0,1,3-7A9.63,9.63,0,0,1,29.5,7.86a1.52,1.52,0,0,1,1.12.46,1.57,1.57,0,0,1,0,2.22Z"/><path d="M58.34,19.74a32.47,32.47,0,0,0-4.76-6,39.47,39.47,0,0,0-6-5L45.5,12.38A33.59,33.59,0,0,1,54.79,22a34,34,0,0,1-9.93,10,27.49,27.49,0,0,1-12.92,4.49L29.5,40.86a31.64,31.64,0,0,0,13.81-3.11A35.53,35.53,0,0,0,54.75,29a35.87,35.87,0,0,0,3.59-4.75,4.2,4.2,0,0,0,0-4.52Z"/></svg>